<svg width="1240" height="770" xmlns="http://www.w3.org/2000/svg" xmlns:xlink="http://www.w3.org/1999/xlink" overflow="hidden"><g><rect x="0" y="0" width="1240" height="770" fill="#FFFFFF"/><path d="M363.5 189.5C363.5 180.664 370.664 173.5 379.5 173.5L1177.5 173.5C1186.34 173.5 1193.5 180.664 1193.5 189.5L1193.5 419.5C1193.5 428.337 1186.34 435.5 1177.5 435.5L379.5 435.5C370.664 435.5 363.5 428.337 363.5 419.5Z" stroke="#B9BCC4" stroke-width="1.11664" stroke-linejoin="round" stroke-miterlimit="10" fill="#E7E6E6" fill-rule="evenodd"/><text fill="#8A8E98" font-family="Calibri,Calibri_MSFontService,sans-serif" font-weight="700" font-size="13.3333" transform="translate(36.6667 65)">CLIENT</text><text fill="#8A8E98" font-family="Calibri,Calibri_MSFontService,sans-serif" font-weight="700" font-size="13.3333" transform="translate(36.6667 305)">SERVER</text><text fill="#8A8E98" font-family="Calibri,Calibri_MSFontService,sans-serif" font-weight="700" font-size="13.3333" transform="translate(36.6666 537)">RESOURCES</text><path d="M440.5 35.5001C440.5 27.7681 446.768 21.5001 454.5 21.5001L786.5 21.5001C794.232 21.5001 800.5 27.7681 800.5 35.5001L800.5 93.5001C800.5 101.232 794.232 107.5 786.5 107.5L454.5 107.5C446.768 107.5 440.5 101.232 440.5 93.5001Z" stroke="#5B6172" stroke-width="1.11664" stroke-linejoin="round" stroke-miterlimit="10" fill="#FFFFFF" fill-rule="evenodd"/><text fill="#2A2D35" font-family="Calibri,Calibri_MSFontService,sans-serif" font-weight="700" font-size="21" transform="translate(546.43 60)">MCP client (LLM)</text><text fill="#7A7E89" font-family="Calibri,Calibri_MSFontService,sans-serif" font-weight="400" font-size="12" transform="translate(527.75 85)">MCP</text><text fill="#7A7E89" font-family="Calibri,Calibri_MSFontService,sans-serif" font-weight="400" font-size="12" transform="translate(550.583 85)">-</text><text fill="#7A7E89" font-family="Calibri,Calibri_MSFontService,sans-serif" font-weight="400" font-size="12" transform="translate(554.25 85)">capable host · orchestrates tools</text><path d="M163.5 189.501C163.5 180.664 170.664 173.5 179.501 173.5L982.5 173.5C991.336 173.5 998.5 180.664 998.5 189.501L998.5 419.5C998.5 428.336 991.336 435.5 982.5 435.5L179.501 435.5C170.664 435.5 163.5 428.336 163.5 419.5Z" stroke="#B9BCC4" stroke-width="1.11664" stroke-linejoin="round" stroke-miterlimit="10" fill="#FFFFFF" fill-rule="evenodd"/><text fill="#24272F" font-family="Calibri,Calibri_MSFontService,sans-serif" font-weight="700" font-size="18" transform="translate(492.891 209)">MCP</text><text fill="#24272F" font-family="Calibri,Calibri_MSFontService,sans-serif" font-weight="700" font-size="18" transform="translate(527.558 209)">-</text><text fill="#24272F" font-family="Calibri,Calibri_MSFontService,sans-serif" font-weight="700" font-size="18" transform="translate(533.058 209)">over</text><text fill="#24272F" font-family="Calibri,Calibri_MSFontService,sans-serif" font-weight="700" font-size="18" transform="translate(566.338 209)">-</text><text fill="#24272F" font-family="Calibri,Calibri_MSFontService,sans-serif" font-weight="700" font-size="18" transform="translate(571.838 209)">SPARQL server</text><path d="M186.5 261.5C186.5 254.872 191.872 249.5 198.5 249.5L318.501 249.5C325.128 249.5 330.5 254.872 330.5 261.5L330.5 387.501C330.5 394.128 325.128 399.5 318.501 399.5L198.5 399.5C191.872 399.5 186.5 394.128 186.5 387.501Z" stroke="#9CC0EE" stroke-width="1.11664" stroke-linejoin="round" stroke-miterlimit="10" fill="#EAF1FB" fill-rule="evenodd"/><text fill="#2B3340" font-family="Calibri,Calibri_MSFontService,sans-serif" font-weight="700" font-size="17.3333" transform="translate(195.314 303)">Schema Overview</text><text fill="#7F7F7F" font-family="Calibri,Calibri_MSFontService,sans-serif" font-weight="400" font-size="12" transform="translate(218.173 348)">High</text><text fill="#7F7F7F" font-family="Calibri,Calibri_MSFontService,sans-serif" font-weight="400" font-size="12" transform="translate(240.507 348)">-</text><text fill="#7F7F7F" font-family="Calibri,Calibri_MSFontService,sans-serif" font-weight="400" font-size="12" transform="translate(244.173 348)">level graph</text><text fill="#7F7F7F" font-family="Calibri,Calibri_MSFontService,sans-serif" font-weight="400" font-size="12" transform="translate(235.673 367)">synthesis</text><path d="M349.5 260.5C349.5 253.872 354.872 248.5 361.5 248.5L481.501 248.5C488.128 248.5 493.5 253.872 493.5 260.5L493.5 386.501C493.5 393.128 488.128 398.5 481.501 398.5L361.5 398.5C354.872 398.5 349.5 393.128 349.5 386.501Z" stroke="#9CC0EE" stroke-width="1.11664" stroke-linejoin="round" stroke-miterlimit="10" fill="#EAF1FB" fill-rule="evenodd"/><text fill="#2B3340" font-family="Calibri,Calibri_MSFontService,sans-serif" font-weight="700" font-size="17.3333" transform="translate(390.718 291)">Discover</text><text fill="#2B3340" font-family="Calibri,Calibri_MSFontService,sans-serif" font-weight="700" font-size="17.3333" transform="translate(377.318 317)">Nodeshapes</text><text fill="#6F7682" font-family="Calibri,Calibri_MSFontService,sans-serif" font-weight="400" font-size="12" transform="translate(384.171 347)">Relevant SHACL</text><text fill="#6F7682" font-family="Calibri,Calibri_MSFontService,sans-serif" font-weight="400" font-size="12" transform="translate(383.171 366)">shapes, in detail</text><path d="M509.5 261.5C509.5 254.872 514.872 249.5 521.5 249.5L641.501 249.5C648.128 249.5 653.5 254.872 653.5 261.5L653.5 387.501C653.5 394.128 648.128 399.5 641.501 399.5L521.5 399.5C514.872 399.5 509.5 394.128 509.5 387.501Z" stroke="#D9DBE0" stroke-width="1.11664" stroke-linejoin="round" stroke-miterlimit="10" fill="#F7F7F9" fill-rule="evenodd"/><text fill="#2B3340" font-family="Calibri,Calibri_MSFontService,sans-serif" font-weight="700" font-size="17.3333" transform="translate(528.393 301)">G</text><text fill="#2B3340" font-family="Calibri,Calibri_MSFontService,sans-serif" font-weight="700" font-size="17.3333" transform="translate(539.393 301)">et Few Shots</text><text fill="#6F7682" font-family="Calibri,Calibri_MSFontService,sans-serif" font-weight="400" font-size="12" transform="translate(539.691 334)">Validated query</text><text fill="#6F7682" font-family="Calibri,Calibri_MSFontService,sans-serif" font-weight="400" font-size="12" transform="translate(557.858 353)">patterns</text><path d="M670.5 261.5C670.5 254.872 675.872 249.5 682.5 249.5L802.501 249.5C809.128 249.5 814.5 254.872 814.5 261.5L814.5 387.501C814.5 394.128 809.128 399.5 802.501 399.5L682.5 399.5C675.872 399.5 670.5 394.128 670.5 387.501Z" stroke="#93CFA9" stroke-width="1.11664" stroke-linejoin="round" stroke-miterlimit="10" fill="#E8F6EE" fill-rule="evenodd"/><text fill="#2B3340" font-family="Calibri,Calibri_MSFontService,sans-serif" font-weight="700" font-size="17.3333" transform="translate(705.935 289)">Reconcile</text><text fill="#2B3340" font-family="Calibri,Calibri_MSFontService,sans-serif" font-weight="700" font-size="17.3333" transform="translate(713.429 315)">Entities</text><text fill="#6F7682" font-family="Calibri,Calibri_MSFontService,sans-serif" font-weight="400" font-size="12" transform="translate(702.857 345)">Labels to stable</text><text fill="#6F7682" font-family="Calibri,Calibri_MSFontService,sans-serif" font-weight="400" font-size="12" transform="translate(732.103 364)">IRIs</text><path d="M1024.5 257.5C1024.5 250.872 1029.87 245.5 1036.5 245.5L1156.5 245.5C1163.13 245.5 1168.5 250.872 1168.5 257.5L1168.5 383.501C1168.5 390.128 1163.13 395.5 1156.5 395.5L1036.5 395.5C1029.87 395.5 1024.5 390.128 1024.5 383.501Z" stroke="#D9DBE0" stroke-width="1.11664" stroke-linejoin="round" stroke-miterlimit="10" fill="#F7F7F9" fill-rule="evenodd"/><text fill="#2B3340" font-family="Calibri,Calibri_MSFontService,sans-serif" font-weight="700" font-size="17.3333" transform="translate(1054.32 298)">healthcheck</text><text fill="#6F7682" font-family="Calibri,Calibri_MSFontService,sans-serif" font-weight="400" font-size="12" transform="translate(1054.53 334)">Status &amp; endpoint</text><text fill="#6F7682" font-family="Calibri,Calibri_MSFontService,sans-serif" font-weight="400" font-size="12" transform="translate(1070.03 353)">reachability</text><path d="M830.5 257.5C830.5 250.872 835.872 245.5 842.5 245.5L962.501 245.5C969.128 245.5 974.5 250.872 974.5 257.5L974.5 383.501C974.5 390.128 969.128 395.5 962.501 395.5L842.5 395.5C835.872 395.5 830.5 390.128 830.5 383.501Z" stroke="#ECC188" stroke-width="1.11664" stroke-linejoin="round" stroke-miterlimit="10" fill="#FDF1E3" fill-rule="evenodd"/><text fill="#2B3340" font-family="Calibri,Calibri_MSFontService,sans-serif" font-weight="700" font-size="17.3333" transform="translate(854.72 303)">Q</text><text fill="#2B3340" font-family="Calibri,Calibri_MSFontService,sans-serif" font-weight="700" font-size="17.3333" transform="translate(866.553 303)">uery</text><text fill="#2B3340" font-family="Calibri,Calibri_MSFontService,sans-serif" font-weight="700" font-size="17.3333" transform="translate(902.96 303)">Sparql</text><text fill="#6F7682" font-family="Calibri,Calibri_MSFontService,sans-serif" font-weight="400" font-size="12" transform="translate(869.068 343)">Runs the final</text><text fill="#6F7682" font-family="Calibri,Calibri_MSFontService,sans-serif" font-weight="400" font-size="12" transform="translate(888.322 362)">query</text><path d="M191.5 498.5C191.5 490.768 197.768 484.5 205.5 484.5L457.5 484.5C465.232 484.5 471.5 490.768 471.5 498.5L471.5 578.5C471.5 586.232 465.232 592.5 457.5 592.5L205.5 592.5C197.768 592.5 191.5 586.232 191.5 578.5Z" stroke="#9CC0EE" stroke-width="1.11664" stroke-linejoin="round" stroke-miterlimit="10" fill="#EAF1FB" fill-rule="evenodd"/><text fill="#24272F" font-family="Calibri,Calibri_MSFontService,sans-serif" font-weight="700" font-size="17" transform="translate(259.869 532)">SHACL shapes graph</text><text fill="#6F7682" font-family="Calibri,Calibri_MSFontService,sans-serif" font-weight="400" font-size="10.6667" transform="translate(290.924 558)">Target data model</text><path d="M482.5 499.5C482.5 491.768 488.768 485.5 496.5 485.5L713.5 485.5C721.232 485.5 727.5 491.768 727.5 499.5L727.5 579.5C727.5 587.232 721.232 593.5 713.5 593.5L496.5 593.5C488.768 593.5 482.5 587.232 482.5 579.5Z" stroke="#93CFA9" stroke-width="1.11664" stroke-linejoin="round" stroke-miterlimit="10" fill="#E8F6EE" fill-rule="evenodd"/><text fill="#24272F" font-family="Calibri,Calibri_MSFontService,sans-serif" font-weight="700" font-size="17" transform="translate(531.994 534)">Reconciliation service</text><text fill="#6F7682" font-family="Calibri,Calibri_MSFontService,sans-serif" font-weight="400" font-size="10.6667" transform="translate(556.382 558)">W3C / OpenRefine API</text><path d="M853.5 499.5C853.5 491.768 859.768 485.5 867.5 485.5L1119.5 485.5C1127.23 485.5 1133.5 491.768 1133.5 499.5L1133.5 579.5C1133.5 587.232 1127.23 593.5 1119.5 593.5L867.5 593.5C859.768 593.5 853.5 587.232 853.5 579.5Z" stroke="#ECC188" stroke-width="1.11664" stroke-linejoin="round" stroke-miterlimit="10" fill="#FDF1E3" fill-rule="evenodd"/><text fill="#24272F" font-family="Calibri,Calibri_MSFontService,sans-serif" font-weight="700" font-size="17" transform="translate(931.573 534)">SPARQL endpoint</text><text fill="#6F7682" font-family="Calibri,Calibri_MSFontService,sans-serif" font-weight="400" font-size="10.6667" transform="translate(954.841 560)">Knowledge graph</text><path d="M0.333333-5.47299e-07 0.333427 57.2758-0.333239 57.2758-0.333333 5.47299e-07ZM4.00009 55.9425 0.000104987 63.9425-3.99991 55.9425Z" fill="#3B3838" transform="matrix(-1 0 0 1 620.5 107.5)"/><path d="M258.754 399.284 326.798 479.207 326.29 479.639 258.246 399.716ZM328.725 475.815 330.865 484.499 322.634 481.001Z" fill="#4472C4"/><path d="M0.229096-0.242128 85.4869 80.4267 85.0287 80.911-0.229096 0.242128ZM87.0386 76.8471 90.1006 85.2509 81.5403 82.6582Z" fill="#4472C4" transform="matrix(-1 0 0 1 421.601 398.5)"/><path d="M0.178449-0.281544 131.629 83.0348 131.272 83.5979-0.178449 0.281544ZM132.466 79.2239 137.081 86.8852 128.183 85.981Z" fill="#548235" transform="matrix(-1 0 0 1 742.582 399.5)"/><path d="M902.735 395.263 989.109 480.92 988.639 481.393 902.265 395.737ZM990.744 477.378 993.608 485.851 985.111 483.058Z" fill="#C55A11"/><text fill="#595959" font-family="Calibri,Calibri_MSFontService,sans-serif" font-weight="400" font-size="16" transform="translate(634.221 131)">MCP transport</text><text fill="#595959" font-family="Calibri,Calibri_MSFontService,sans-serif" font-weight="400" font-size="16" transform="translate(634.221 150)">Stdio</text><text fill="#595959" font-family="Calibri,Calibri_MSFontService,sans-serif" font-weight="400" font-size="16" transform="translate(670.875 150)">| HTTP</text><text fill="#595959" font-family="Calibri,Calibri_MSFontService,sans-serif" font-weight="400" font-size="16" transform="translate(296.945 443)">Read model</text><text fill="#595959" font-family="Calibri,Calibri_MSFontService,sans-serif" font-weight="400" font-size="16" transform="translate(673.476 457)">Reconcile</text><text fill="#595959" font-family="Calibri,Calibri_MSFontService,sans-serif" font-weight="400" font-size="16" transform="translate(967.046 455)">Execute</text><path d="M727.5 539.5 853.423 539.564" stroke="#000000" stroke-linejoin="round" stroke-miterlimit="10" stroke-dasharray="4 3" fill="none" fill-rule="evenodd"/><path d="M840.503 539 852.27 539.059 852.265 540.059 840.498 540ZM844.545 534.422 853.26 539.564 844.494 544.619C844.255 544.757 843.949 544.675 843.811 544.435 843.673 544.196 843.755 543.89 843.995 543.752L852.018 539.126 852.014 539.99 844.037 535.283C843.799 535.143 843.72 534.836 843.861 534.598 844.001 534.36 844.307 534.281 844.545 534.422Z"/><path d="M426.5 656.926C426.5 652.273 430.273 648.5 434.926 648.5L610.074 648.5C614.728 648.5 618.5 652.273 618.5 656.926L618.5 705.074C618.5 709.728 614.728 713.5 610.074 713.5L434.926 713.5C430.273 713.5 426.5 709.728 426.5 705.074Z" stroke="#93CFA9" stroke-width="1.11664" stroke-linejoin="round" stroke-miterlimit="10" fill="#E8F6EE" fill-rule="evenodd"/><path d="M646.5 655.926C646.5 651.273 650.273 647.5 654.926 647.5L830.074 647.5C834.728 647.5 838.5 651.273 838.5 655.926L838.5 704.074C838.5 708.728 834.728 712.5 830.074 712.5L654.926 712.5C650.273 712.5 646.5 708.728 646.5 704.074Z" stroke="#93CFA9" stroke-width="1.11664" stroke-linejoin="round" stroke-miterlimit="10" fill="#E8F6EE" fill-rule="evenodd"/><path d="M866.5 654.926C866.5 650.273 870.273 646.5 874.926 646.5L1050.07 646.5C1054.73 646.5 1058.5 650.273 1058.5 654.926L1058.5 703.074C1058.5 707.728 1054.73 711.5 1050.07 711.5L874.926 711.5C870.273 711.5 866.5 707.728 866.5 703.074Z" stroke="#93CFA9" stroke-width="1.11664" stroke-linejoin="round" stroke-miterlimit="10" fill="#E8F6EE" fill-rule="evenodd"/><path d="M0 0 82.5088 54.4055" stroke="#000000" stroke-linejoin="round" stroke-miterlimit="10" stroke-dasharray="4 3" fill="none" fill-rule="evenodd" transform="matrix(-1 0 0 1 605.009 593.5)"/><path d="M605.5 593.5 742.582 647.436" stroke="#000000" stroke-linejoin="round" stroke-miterlimit="10" stroke-dasharray="4 3" fill="none" fill-rule="evenodd"/><path d="M605.5 593.5 962.896 646.106" stroke="#000000" stroke-linejoin="round" stroke-miterlimit="10" stroke-dasharray="4 3" fill="none" fill-rule="evenodd"/><path d="M733.696 644.04 745.542 649.071 745.151 649.992 733.305 644.96ZM740.208 641.81 746.26 649.92 736.222 651.195C735.948 651.23 735.698 651.036 735.663 650.763 735.628 650.489 735.822 650.238 736.096 650.203L745.283 649.036 744.946 649.831 739.407 642.408C739.242 642.187 739.287 641.873 739.508 641.708 739.73 641.543 740.043 641.589 740.208 641.81Z"/><path d="M962.641 646.02 965.761 646.936 965.48 647.895 962.359 646.98ZM959.621 640.342 966.573 647.695 956.751 650.127C956.483 650.193 956.212 650.03 956.145 649.762 956.079 649.494 956.242 649.223 956.51 649.156L965.5 646.93 965.257 647.759 958.894 641.029C958.705 640.829 958.713 640.512 958.914 640.322 959.115 640.133 959.431 640.141 959.621 640.342Z"/><path d="M0.268174-0.421999 8.17308 4.60145 7.63674 5.44545-0.268174 0.421999ZM4.10016-3.43537 8.74243 5.55568-1.36903 5.17097C-1.64497 5.16047-1.86016 4.92826-1.84966 4.65232-1.83916 4.37638-1.60695 4.16119-1.33101 4.17169L7.92392 4.52381 7.46064 5.25284 3.21161-2.97659C3.08492-3.22196 3.18113-3.52357 3.4265-3.65026 3.67186-3.77694 3.97347-3.68074 4.10016-3.43537Z" transform="matrix(-1 0 0 1 530.241 643.5)"/><text font-family="Calibri,Calibri_MSFontService,sans-serif" font-weight="700" font-size="16" transform="translate(703.135 685)">existing</text><text font-family="Calibri,Calibri_MSFontService,sans-serif" font-weight="700" font-size="16" transform="translate(757.869 685)">API</text><text font-family="Calibri,Calibri_MSFontService,sans-serif" font-weight="700" font-size="16" transform="translate(916.989 674)">custom</text><text font-family="Calibri,Calibri_MSFontService,sans-serif" font-weight="700" font-size="16" transform="translate(965.489 674)">-</text><text font-family="Calibri,Calibri_MSFontService,sans-serif" font-weight="700" font-size="16" transform="translate(970.322 674)">built</text><text font-family="Calibri,Calibri_MSFontService,sans-serif" font-weight="700" font-size="16" transform="translate(916.816 693)">Search Index</text><text font-family="Calibri,Calibri_MSFontService,sans-serif" font-weight="700" font-size="16" transform="translate(467.133 677)">full</text><text font-family="Calibri,Calibri_MSFontService,sans-serif" font-weight="700" font-size="16" transform="translate(488.8 677)">-</text><text font-family="Calibri,Calibri_MSFontService,sans-serif" font-weight="700" font-size="16" transform="translate(493.633 677)">text indexing</text><text fill="#595959" font-family="Calibri,Calibri_MSFontService,sans-serif" font-weight="400" font-size="12" transform="translate(736.435 529)">SPARQL</text><text fill="#595959" font-family="Calibri,Calibri_MSFontService,sans-serif" font-weight="400" font-size="12" transform="translate(774.602 529)">-</text><text fill="#595959" font-family="Calibri,Calibri_MSFontService,sans-serif" font-weight="400" font-size="12" transform="translate(778.268 529)">based</text><text fill="#595959" font-family="Calibri,Calibri_MSFontService,sans-serif" font-weight="400" font-size="12" transform="translate(809.935 529)">search</text><text fill="#6F7682" font-family="Calibri,Calibri_MSFontService,sans-serif" font-weight="400" font-size="10.6667" transform="translate(469.41 694)">T</text><text fill="#6F7682" font-family="Calibri,Calibri_MSFontService,sans-serif" font-weight="400" font-size="10.6667" transform="translate(474.576 694)">riplestore's</text><text fill="#6F7682" font-family="Calibri,Calibri_MSFontService,sans-serif" font-weight="400" font-size="10.6667" transform="translate(525.41 694)">proprietary</text></g></svg>