<svg width="1240" height="770" xmlns="http://www.w3.org/2000/svg" xmlns:xlink="http://www.w3.org/1999/xlink" overflow="hidden"><g><rect x="0" y="0" width="1240" height="770" fill="#FFFFFF"/><path d="M363.5 226.5C363.5 217.664 370.664 210.5 379.5 210.5L1177.5 210.5C1186.34 210.5 1193.5 217.664 1193.5 226.5L1193.5 456.5C1193.5 465.337 1186.34 472.5 1177.5 472.5L379.5 472.5C370.664 472.5 363.5 465.337 363.5 456.5Z" stroke="#B9BCC4" stroke-width="1.11664" stroke-linejoin="round" stroke-miterlimit="10" fill="#E7E6E6" fill-rule="evenodd"/><text fill="#8A8E98" font-family="Calibri,Calibri_MSFontService,sans-serif" font-weight="700" font-size="13.3333" transform="translate(36.6667 109)">CLIENT</text><text fill="#8A8E98" font-family="Calibri,Calibri_MSFontService,sans-serif" font-weight="700" font-size="13.3333" transform="translate(36.6667 349)">SERVER</text><text fill="#8A8E98" font-family="Calibri,Calibri_MSFontService,sans-serif" font-weight="700" font-size="13.3333" transform="translate(36.6666 622)">RESOURCES</text><path d="M440.5 72.5001C440.5 64.7681 446.768 58.5001 454.5 58.5001L786.5 58.5001C794.232 58.5001 800.5 64.7681 800.5 72.5001L800.5 130.5C800.5 138.232 794.232 144.5 786.5 144.5L454.5 144.5C446.768 144.5 440.5 138.232 440.5 130.5Z" stroke="#5B6172" stroke-width="1.11664" stroke-linejoin="round" stroke-miterlimit="10" fill="#FFFFFF" fill-rule="evenodd"/><text fill="#2A2D35" font-family="Calibri,Calibri_MSFontService,sans-serif" font-weight="700" font-size="21" transform="translate(546.43 98)">MCP client (LLM)</text><text fill="#7A7E89" font-family="Calibri,Calibri_MSFontService,sans-serif" font-weight="400" font-size="12" transform="translate(527.75 122)">MCP</text><text fill="#7A7E89" font-family="Calibri,Calibri_MSFontService,sans-serif" font-weight="400" font-size="12" transform="translate(550.583 122)">-</text><text fill="#7A7E89" font-family="Calibri,Calibri_MSFontService,sans-serif" font-weight="400" font-size="12" transform="translate(554.25 122)">capable host · orchestrates tools</text><path d="M163.5 226.501C163.5 217.664 170.664 210.5 179.501 210.5L982.5 210.5C991.336 210.5 998.5 217.664 998.5 226.501L998.5 456.5C998.5 465.336 991.336 472.5 982.5 472.5L179.501 472.5C170.664 472.5 163.5 465.336 163.5 456.5Z" stroke="#B9BCC4" stroke-width="1.11664" stroke-linejoin="round" stroke-miterlimit="10" fill="#FFFFFF" fill-rule="evenodd"/><text fill="#24272F" font-family="Calibri,Calibri_MSFontService,sans-serif" font-weight="700" font-size="18" transform="translate(492.891 247)">MCP</text><text fill="#24272F" font-family="Calibri,Calibri_MSFontService,sans-serif" font-weight="700" font-size="18" transform="translate(527.558 247)">-</text><text fill="#24272F" font-family="Calibri,Calibri_MSFontService,sans-serif" font-weight="700" font-size="18" transform="translate(533.058 247)">over</text><text fill="#24272F" font-family="Calibri,Calibri_MSFontService,sans-serif" font-weight="700" font-size="18" transform="translate(566.338 247)">-</text><text fill="#24272F" font-family="Calibri,Calibri_MSFontService,sans-serif" font-weight="700" font-size="18" transform="translate(571.838 247)">SPARQL server</text><path d="M186.5 298.5C186.5 291.872 191.872 286.5 198.5 286.5L318.501 286.5C325.128 286.5 330.5 291.872 330.5 298.5L330.5 424.501C330.5 431.128 325.128 436.5 318.501 436.5L198.5 436.5C191.872 436.5 186.5 431.128 186.5 424.501Z" stroke="#9CC0EE" stroke-width="1.11664" stroke-linejoin="round" stroke-miterlimit="10" fill="#EAF1FB" fill-rule="evenodd"/><text fill="#2B3340" font-family="Calibri,Calibri_MSFontService,sans-serif" font-weight="700" font-size="17.3333" transform="translate(197.174 341)">schema overview</text><text fill="#7F7F7F" font-family="Calibri,Calibri_MSFontService,sans-serif" font-weight="400" font-size="12" transform="translate(218.173 385)">High</text><text fill="#7F7F7F" font-family="Calibri,Calibri_MSFontService,sans-serif" font-weight="400" font-size="12" transform="translate(240.507 385)">-</text><text fill="#7F7F7F" font-family="Calibri,Calibri_MSFontService,sans-serif" font-weight="400" font-size="12" transform="translate(244.173 385)">level graph</text><text fill="#7F7F7F" font-family="Calibri,Calibri_MSFontService,sans-serif" font-weight="400" font-size="12" transform="translate(235.673 404)">synthesis</text><path d="M349.5 298.5C349.5 291.872 354.872 286.5 361.5 286.5L481.501 286.5C488.128 286.5 493.5 291.872 493.5 298.5L493.5 424.501C493.5 431.128 488.128 436.5 481.501 436.5L361.5 436.5C354.872 436.5 349.5 431.128 349.5 424.501Z" stroke="#9CC0EE" stroke-width="1.11664" stroke-linejoin="round" stroke-miterlimit="10" fill="#EAF1FB" fill-rule="evenodd"/><text fill="#2B3340" font-family="Calibri,Calibri_MSFontService,sans-serif" font-weight="700" font-size="17.3333" transform="translate(379.258 329)">node</text><text fill="#2B3340" font-family="Calibri,Calibri_MSFontService,sans-serif" font-weight="700" font-size="17.3333" transform="translate(415.924 329)">-</text><text fill="#2B3340" font-family="Calibri,Calibri_MSFontService,sans-serif" font-weight="700" font-size="17.3333" transform="translate(421.258 329)">shape</text><text fill="#2B3340" font-family="Calibri,Calibri_MSFontService,sans-serif" font-weight="700" font-size="17.3333" transform="translate(387.538 355)">discovery</text><text fill="#6F7682" font-family="Calibri,Calibri_MSFontService,sans-serif" font-weight="400" font-size="12" transform="translate(384.171 384)">Relevant SHACL</text><text fill="#6F7682" font-family="Calibri,Calibri_MSFontService,sans-serif" font-weight="400" font-size="12" transform="translate(383.171 403)">shapes, in detail</text><path d="M509.5 298.5C509.5 291.872 514.872 286.5 521.5 286.5L641.501 286.5C648.128 286.5 653.5 291.872 653.5 298.5L653.5 424.501C653.5 431.128 648.128 436.5 641.501 436.5L521.5 436.5C514.872 436.5 509.5 431.128 509.5 424.501Z" stroke="#D9DBE0" stroke-width="1.11664" stroke-linejoin="round" stroke-miterlimit="10" fill="#F7F7F9" fill-rule="evenodd"/><text fill="#2B3340" font-family="Calibri,Calibri_MSFontService,sans-serif" font-weight="700" font-size="17.3333" transform="translate(551.912 328)">few</text><text fill="#2B3340" font-family="Calibri,Calibri_MSFontService,sans-serif" font-weight="700" font-size="17.3333" transform="translate(578.519 328)">-</text><text fill="#2B3340" font-family="Calibri,Calibri_MSFontService,sans-serif" font-weight="700" font-size="17.3333" transform="translate(583.852 328)">shot</text><text fill="#2B3340" font-family="Calibri,Calibri_MSFontService,sans-serif" font-weight="700" font-size="17.3333" transform="translate(549.659 354)">examples</text><text fill="#6F7682" font-family="Calibri,Calibri_MSFontService,sans-serif" font-weight="400" font-size="12" transform="translate(542.008 383)">Validated query</text><text fill="#6F7682" font-family="Calibri,Calibri_MSFontService,sans-serif" font-weight="400" font-size="12" transform="translate(560.175 402)">patterns</text><path d="M670.5 298.5C670.5 291.872 675.872 286.5 682.5 286.5L802.501 286.5C809.128 286.5 814.5 291.872 814.5 298.5L814.5 424.501C814.5 431.128 809.128 436.5 802.501 436.5L682.5 436.5C675.872 436.5 670.5 431.128 670.5 424.501Z" stroke="#93CFA9" stroke-width="1.11664" stroke-linejoin="round" stroke-miterlimit="10" fill="#E8F6EE" fill-rule="evenodd"/><text fill="#2B3340" font-family="Calibri,Calibri_MSFontService,sans-serif" font-weight="700" font-size="17.3333" transform="translate(719.182 327)">entity</text><text fill="#2B3340" font-family="Calibri,Calibri_MSFontService,sans-serif" font-weight="700" font-size="17.3333" transform="translate(691.236 353)">reconciliation</text><text fill="#6F7682" font-family="Calibri,Calibri_MSFontService,sans-serif" font-weight="400" font-size="12" transform="translate(702.857 382)">Labels</text><text fill="#6F7682" font-family="Calibri,Calibri_MSFontService,sans-serif" font-weight="400" font-size="12" transform="translate(736.023 382)">to</text><text fill="#6F7682" font-family="Calibri,Calibri_MSFontService,sans-serif" font-weight="400" font-size="12" transform="translate(749.023 382)">stable</text><text fill="#6F7682" font-family="Calibri,Calibri_MSFontService,sans-serif" font-weight="400" font-size="12" transform="translate(732.103 401)">IRIs</text><path d="M1024.5 295.5C1024.5 288.872 1029.87 283.5 1036.5 283.5L1156.5 283.5C1163.13 283.5 1168.5 288.872 1168.5 295.5L1168.5 421.501C1168.5 428.128 1163.13 433.5 1156.5 433.5L1036.5 433.5C1029.87 433.5 1024.5 428.128 1024.5 421.501Z" stroke="#D9DBE0" stroke-width="1.11664" stroke-linejoin="round" stroke-miterlimit="10" fill="#F7F7F9" fill-rule="evenodd"/><text fill="#2B3340" font-family="Calibri,Calibri_MSFontService,sans-serif" font-weight="700" font-size="17.3333" transform="translate(1054.32 335)">healthcheck</text><text fill="#6F7682" font-family="Calibri,Calibri_MSFontService,sans-serif" font-weight="400" font-size="12" transform="translate(1054.53 372)">Status &amp; endpoint</text><text fill="#6F7682" font-family="Calibri,Calibri_MSFontService,sans-serif" font-weight="400" font-size="12" transform="translate(1070.03 391)">reachability</text><path d="M830.5 295.5C830.5 288.872 835.872 283.5 842.5 283.5L962.501 283.5C969.128 283.5 974.5 288.872 974.5 295.5L974.5 421.501C974.5 428.128 969.128 433.5 962.501 433.5L842.5 433.5C835.872 433.5 830.5 428.128 830.5 421.501Z" stroke="#ECC188" stroke-width="1.11664" stroke-linejoin="round" stroke-miterlimit="10" fill="#FDF1E3" fill-rule="evenodd"/><text fill="#2B3340" font-family="Calibri,Calibri_MSFontService,sans-serif" font-weight="700" font-size="17.3333" transform="translate(872.126 327)">SPARQL</text><text fill="#2B3340" font-family="Calibri,Calibri_MSFontService,sans-serif" font-weight="700" font-size="17.3333" transform="translate(864.712 353)">execution</text><text fill="#6F7682" font-family="Calibri,Calibri_MSFontService,sans-serif" font-weight="400" font-size="12" transform="translate(869.068 380)">Runs the final</text><text fill="#6F7682" font-family="Calibri,Calibri_MSFontService,sans-serif" font-weight="400" font-size="12" transform="translate(888.322 399)">query</text><path d="M191.5 574.5C191.5 566.768 197.768 560.5 205.5 560.5L457.5 560.5C465.232 560.5 471.5 566.768 471.5 574.5L471.5 654.5C471.5 662.232 465.232 668.5 457.5 668.5L205.5 668.5C197.768 668.5 191.5 662.232 191.5 654.5Z" stroke="#9CC0EE" stroke-width="1.11664" stroke-linejoin="round" stroke-miterlimit="10" fill="#EAF1FB" fill-rule="evenodd"/><text fill="#24272F" font-family="Calibri,Calibri_MSFontService,sans-serif" font-weight="700" font-size="17" transform="translate(259.869 609)">SHACL shapes graph</text><text fill="#6F7682" font-family="Calibri,Calibri_MSFontService,sans-serif" font-weight="400" font-size="10.6667" transform="translate(290.924 635)">Target data model</text><path d="M522.5 574.5C522.5 566.768 528.768 560.5 536.5 560.5L788.5 560.5C796.232 560.5 802.5 566.768 802.5 574.5L802.5 654.5C802.5 662.232 796.232 668.5 788.5 668.5L536.5 668.5C528.768 668.5 522.5 662.232 522.5 654.5Z" stroke="#93CFA9" stroke-width="1.11664" stroke-linejoin="round" stroke-miterlimit="10" fill="#E8F6EE" fill-rule="evenodd"/><text fill="#24272F" font-family="Calibri,Calibri_MSFontService,sans-serif" font-weight="700" font-size="17" transform="translate(585.503 609)">Reconciliation service</text><text fill="#6F7682" font-family="Calibri,Calibri_MSFontService,sans-serif" font-weight="400" font-size="10.6667" transform="translate(612.924 635)">W3C / OpenRefine API</text><path d="M853.5 574.5C853.5 566.768 859.768 560.5 867.5 560.5L1119.5 560.5C1127.23 560.5 1133.5 566.768 1133.5 574.5L1133.5 654.5C1133.5 662.232 1127.23 668.5 1119.5 668.5L867.5 668.5C859.768 668.5 853.5 662.232 853.5 654.5Z" stroke="#ECC188" stroke-width="1.11664" stroke-linejoin="round" stroke-miterlimit="10" fill="#FDF1E3" fill-rule="evenodd"/><text fill="#24272F" font-family="Calibri,Calibri_MSFontService,sans-serif" font-weight="700" font-size="17" transform="translate(931.573 609)">SPARQL endpoint</text><text fill="#6F7682" font-family="Calibri,Calibri_MSFontService,sans-serif" font-weight="400" font-size="10.6667" transform="translate(954.841 635)">Knowledge graph</text><path d="M0.333333-5.47299e-07 0.333427 57.2758-0.333239 57.2758-0.333333 5.47299e-07ZM4.00009 55.9425 0.000104987 63.9425-3.99991 55.9425Z" fill="#3B3838" transform="matrix(-1 0 0 1 620.5 144.5)"/><path d="M258.788 436.332 327.793 554.574 327.217 554.91 258.212 436.668ZM330.288 551.574 330.865 560.5 323.378 555.607Z" fill="#4472C4"/><path d="M0.269851-0.195682 86.4567 118.659 85.917 119.05-0.269851 0.195682ZM88.6424 115.427 90.1006 124.252 82.166 120.123Z" fill="#4472C4" transform="matrix(-1 0 0 1 421.601 436.5)"/><path d="M0.280193-0.180564 76.5779 118.216 76.0175 118.577-0.280193 0.180564ZM78.9376 115.109 79.9089 124 72.213 119.442Z" fill="#548235" transform="matrix(-1 0 0 1 742.409 436.5)"/><path d="M902.771 433.306 990.001 555.285 989.459 555.673 902.229 433.694ZM992.208 552.068 993.608 560.902 985.701 556.721Z" fill="#C55A11"/><text fill="#595959" font-family="Calibri,Calibri_MSFontService,sans-serif" font-weight="400" font-size="16" transform="translate(634.221 168)">MCP transport</text><text fill="#595959" font-family="Calibri,Calibri_MSFontService,sans-serif" font-weight="400" font-size="16" transform="translate(634.221 187)">Stdio</text><text fill="#595959" font-family="Calibri,Calibri_MSFontService,sans-serif" font-weight="400" font-size="16" transform="translate(670.875 187)">|</text><text fill="#595959" font-family="Calibri,Calibri_MSFontService,sans-serif" font-weight="400" font-size="16" transform="translate(681.875 187)">HTT</text><text fill="#595959" font-family="Calibri,Calibri_MSFontService,sans-serif" font-weight="400" font-size="16" transform="translate(707.762 187)">P</text><text fill="#595959" font-family="Calibri,Calibri_MSFontService,sans-serif" font-weight="400" font-size="16" transform="translate(298.373 492)">Read model</text><text fill="#595959" font-family="Calibri,Calibri_MSFontService,sans-serif" font-weight="400" font-size="16" transform="translate(706.935 509)">Reconcile</text><text fill="#595959" font-family="Calibri,Calibri_MSFontService,sans-serif" font-weight="400" font-size="16" transform="translate(972.299 512)">Execute</text></g></svg>